<svg width="297" height="117" viewBox="0 0 297 117" fill="none" xmlns="http://www.w3.org/2000/svg">
<g filter="url(#filter0_d_6_497)">
<rect x="139" y="11" width="147" height="95" rx="10" fill="url(#paint0_linear_6_497)"/>
</g>
<path d="M11.7539 73.5H5.5625L5.60156 68.9297H11.7539C13.2904 68.9297 14.5859 68.5846 15.6406 67.8945C16.6953 67.1914 17.4896 66.1693 18.0234 64.8281C18.5703 63.487 18.8438 61.8659 18.8438 59.9648V58.5781C18.8438 57.1198 18.6875 55.8372 18.375 54.7305C18.0755 53.6237 17.6263 52.6927 17.0273 51.9375C16.4284 51.1823 15.6927 50.6159 14.8203 50.2383C13.9479 49.8477 12.9453 49.6523 11.8125 49.6523H5.44531V45.0625H11.8125C13.7135 45.0625 15.4518 45.388 17.0273 46.0391C18.6159 46.6771 19.9896 47.5951 21.1484 48.793C22.3073 49.9909 23.1992 51.4232 23.8242 53.0898C24.4622 54.7435 24.7812 56.5859 24.7812 58.6172V59.9648C24.7812 61.9831 24.4622 63.8255 23.8242 65.4922C23.1992 67.1589 22.3073 68.5911 21.1484 69.7891C20.0026 70.974 18.6289 71.8919 17.0273 72.543C15.4388 73.181 13.681 73.5 11.7539 73.5ZM8.88281 45.0625V73.5H3.02344V45.0625H8.88281ZM27.7891 63.1484V62.7383C27.7891 61.1888 28.0104 59.763 28.4531 58.4609C28.8958 57.1458 29.5404 56.0065 30.3867 55.043C31.2331 54.0794 32.2747 53.3307 33.5117 52.7969C34.7487 52.25 36.168 51.9766 37.7695 51.9766C39.3711 51.9766 40.7969 52.25 42.0469 52.7969C43.2969 53.3307 44.3451 54.0794 45.1914 55.043C46.0508 56.0065 46.7018 57.1458 47.1445 58.4609C47.5872 59.763 47.8086 61.1888 47.8086 62.7383V63.1484C47.8086 64.6849 47.5872 66.1107 47.1445 67.4258C46.7018 68.7279 46.0508 69.8672 45.1914 70.8438C44.3451 71.8073 43.3034 72.556 42.0664 73.0898C40.8294 73.6237 39.4102 73.8906 37.8086 73.8906C36.207 73.8906 34.7812 73.6237 33.5312 73.0898C32.2943 72.556 31.2461 71.8073 30.3867 70.8438C29.5404 69.8672 28.8958 68.7279 28.4531 67.4258C28.0104 66.1107 27.7891 64.6849 27.7891 63.1484ZM33.4141 62.7383V63.1484C33.4141 64.0339 33.4922 64.8607 33.6484 65.6289C33.8047 66.3971 34.0521 67.0742 34.3906 67.6602C34.7422 68.2331 35.1979 68.6823 35.7578 69.0078C36.3177 69.3333 37.0013 69.4961 37.8086 69.4961C38.5898 69.4961 39.2604 69.3333 39.8203 69.0078C40.3802 68.6823 40.8294 68.2331 41.168 67.6602C41.5065 67.0742 41.7539 66.3971 41.9102 65.6289C42.0794 64.8607 42.1641 64.0339 42.1641 63.1484V62.7383C42.1641 61.8789 42.0794 61.0716 41.9102 60.3164C41.7539 59.5482 41.5 58.8711 41.1484 58.2852C40.8099 57.6862 40.3607 57.2174 39.8008 56.8789C39.2409 56.5404 38.5638 56.3711 37.7695 56.3711C36.9753 56.3711 36.2982 56.5404 35.7383 56.8789C35.1914 57.2174 34.7422 57.6862 34.3906 58.2852C34.0521 58.8711 33.8047 59.5482 33.6484 60.3164C33.4922 61.0716 33.4141 61.8789 33.4141 62.7383ZM57.2031 43.5V73.5H51.5586V43.5H57.2031ZM75.2305 52.3672H80.3281V72.7969C80.3281 74.724 79.8984 76.3581 79.0391 77.6992C78.1927 79.0534 77.0078 80.0755 75.4844 80.7656C73.9609 81.4688 72.1901 81.8203 70.1719 81.8203C69.2865 81.8203 68.349 81.7031 67.3594 81.4688C66.3828 81.2344 65.4453 80.8698 64.5469 80.375C63.6615 79.8802 62.9193 79.2552 62.3203 78.5L64.8008 75.1797C65.4518 75.9349 66.207 76.5208 67.0664 76.9375C67.9258 77.3672 68.8763 77.582 69.918 77.582C70.9336 77.582 71.793 77.3932 72.4961 77.0156C73.1992 76.651 73.7396 76.1107 74.1172 75.3945C74.4948 74.6914 74.6836 73.8385 74.6836 72.8359V57.25L75.2305 52.3672ZM61.0117 63.1875V62.7773C61.0117 61.1628 61.207 59.6979 61.5977 58.3828C62.0013 57.0547 62.5677 55.9154 63.2969 54.9648C64.0391 54.0143 64.9375 53.2786 65.9922 52.7578C67.0469 52.237 68.2383 51.9766 69.5664 51.9766C70.9727 51.9766 72.151 52.237 73.1016 52.7578C74.0521 53.2786 74.8333 54.0208 75.4453 54.9844C76.0573 55.9349 76.5326 57.0612 76.8711 58.3633C77.2227 59.6523 77.4961 61.0651 77.6914 62.6016V63.5C77.4961 64.9714 77.2031 66.3385 76.8125 67.6016C76.4219 68.8646 75.9076 69.9714 75.2695 70.9219C74.6315 71.8594 73.8372 72.5885 72.8867 73.1094C71.9492 73.6302 70.8294 73.8906 69.5273 73.8906C68.2253 73.8906 67.0469 73.6237 65.9922 73.0898C64.9505 72.556 64.0586 71.8073 63.3164 70.8438C62.5742 69.8802 62.0013 68.7474 61.5977 67.4453C61.207 66.1432 61.0117 64.724 61.0117 63.1875ZM66.6367 62.7773V63.1875C66.6367 64.0599 66.7214 64.8737 66.8906 65.6289C67.0599 66.3841 67.3203 67.0547 67.6719 67.6406C68.0365 68.2135 68.4857 68.6628 69.0195 68.9883C69.5664 69.3008 70.2109 69.457 70.9531 69.457C71.9818 69.457 72.8216 69.2422 73.4727 68.8125C74.1237 68.3698 74.612 67.7643 74.9375 66.9961C75.263 66.2279 75.4518 65.3424 75.5039 64.3398V61.7812C75.4779 60.9609 75.3672 60.2253 75.1719 59.5742C74.9766 58.9102 74.7031 58.3438 74.3516 57.875C74 57.4062 73.5443 57.0417 72.9844 56.7812C72.4245 56.5208 71.7604 56.3906 70.9922 56.3906C70.25 56.3906 69.6055 56.5599 69.0586 56.8984C68.5247 57.224 68.0755 57.6732 67.7109 58.2461C67.3594 58.819 67.0924 59.4961 66.9102 60.2773C66.7279 61.0456 66.6367 61.8789 66.6367 62.7773ZM83.8047 63.1484V62.7383C83.8047 61.1888 84.026 59.763 84.4688 58.4609C84.9115 57.1458 85.556 56.0065 86.4023 55.043C87.2487 54.0794 88.2904 53.3307 89.5273 52.7969C90.7643 52.25 92.1836 51.9766 93.7852 51.9766C95.3867 51.9766 96.8125 52.25 98.0625 52.7969C99.3125 53.3307 100.361 54.0794 101.207 55.043C102.066 56.0065 102.717 57.1458 103.16 58.4609C103.603 59.763 103.824 61.1888 103.824 62.7383V63.1484C103.824 64.6849 103.603 66.1107 103.16 67.4258C102.717 68.7279 102.066 69.8672 101.207 70.8438C100.361 71.8073 99.319 72.556 98.082 73.0898C96.8451 73.6237 95.4258 73.8906 93.8242 73.8906C92.2227 73.8906 90.7969 73.6237 89.5469 73.0898C88.3099 72.556 87.2617 71.8073 86.4023 70.8438C85.556 69.8672 84.9115 68.7279 84.4688 67.4258C84.026 66.1107 83.8047 64.6849 83.8047 63.1484ZM89.4297 62.7383V63.1484C89.4297 64.0339 89.5078 64.8607 89.6641 65.6289C89.8203 66.3971 90.0677 67.0742 90.4062 67.6602C90.7578 68.2331 91.2135 68.6823 91.7734 69.0078C92.3333 69.3333 93.0169 69.4961 93.8242 69.4961C94.6055 69.4961 95.276 69.3333 95.8359 69.0078C96.3958 68.6823 96.8451 68.2331 97.1836 67.6602C97.5221 67.0742 97.7695 66.3971 97.9258 65.6289C98.0951 64.8607 98.1797 64.0339 98.1797 63.1484V62.7383C98.1797 61.8789 98.0951 61.0716 97.9258 60.3164C97.7695 59.5482 97.5156 58.8711 97.1641 58.2852C96.8255 57.6862 96.3763 57.2174 95.8164 56.8789C95.2565 56.5404 94.5794 56.3711 93.7852 56.3711C92.9909 56.3711 92.3138 56.5404 91.7539 56.8789C91.207 57.2174 90.7578 57.6862 90.4062 58.2852C90.0677 58.8711 89.8203 59.5482 89.6641 60.3164C89.5078 61.0716 89.4297 61.8789 89.4297 62.7383ZM107.555 70.7852C107.555 69.9518 107.841 69.2552 108.414 68.6953C109 68.1354 109.775 67.8555 110.738 67.8555C111.702 67.8555 112.47 68.1354 113.043 68.6953C113.629 69.2552 113.922 69.9518 113.922 70.7852C113.922 71.6185 113.629 72.3151 113.043 72.875C112.47 73.4349 111.702 73.7148 110.738 73.7148C109.775 73.7148 109 73.4349 108.414 72.875C107.841 72.3151 107.555 71.6185 107.555 70.7852ZM124.508 56.4297V81.625H118.883V52.3672H124.098L124.508 56.4297ZM137.887 62.6992V63.1094C137.887 64.6458 137.704 66.0716 137.34 67.3867C136.988 68.7018 136.467 69.8477 135.777 70.8242C135.087 71.7878 134.228 72.543 133.199 73.0898C132.184 73.6237 131.012 73.8906 129.684 73.8906C128.395 73.8906 127.275 73.6302 126.324 73.1094C125.374 72.5885 124.573 71.8594 123.922 70.9219C123.284 69.9714 122.77 68.8711 122.379 67.6211C121.988 66.3711 121.689 65.0299 121.48 63.5977V62.5234C121.689 60.987 121.988 59.5807 122.379 58.3047C122.77 57.0156 123.284 55.9023 123.922 54.9648C124.573 54.0143 125.367 53.2786 126.305 52.7578C127.255 52.237 128.368 51.9766 129.645 51.9766C130.986 51.9766 132.164 52.2305 133.18 52.7383C134.208 53.2461 135.068 53.9753 135.758 54.9258C136.461 55.8763 136.988 57.0091 137.34 58.3242C137.704 59.6393 137.887 61.0977 137.887 62.6992ZM132.242 63.1094V62.6992C132.242 61.8008 132.164 60.974 132.008 60.2188C131.865 59.4505 131.63 58.7799 131.305 58.207C130.992 57.6341 130.576 57.1914 130.055 56.8789C129.547 56.5534 128.928 56.3906 128.199 56.3906C127.431 56.3906 126.773 56.5143 126.227 56.7617C125.693 57.0091 125.257 57.3672 124.918 57.8359C124.579 58.3047 124.326 58.8646 124.156 59.5156C123.987 60.1667 123.883 60.9023 123.844 61.7227V64.4375C123.909 65.401 124.091 66.2669 124.391 67.0352C124.69 67.7904 125.152 68.3893 125.777 68.832C126.402 69.2747 127.223 69.4961 128.238 69.4961C128.98 69.4961 129.605 69.3333 130.113 69.0078C130.621 68.6693 131.031 68.207 131.344 67.6211C131.669 67.0352 131.897 66.3581 132.027 65.5898C132.171 64.8216 132.242 63.9948 132.242 63.1094Z" fill="black"/>
<path d="M140.484 63.1484V62.7383C140.484 61.1888 140.706 59.763 141.148 58.4609C141.591 57.1458 142.236 56.0065 143.082 55.043C143.928 54.0794 144.97 53.3307 146.207 52.7969C147.444 52.25 148.863 51.9766 150.465 51.9766C152.066 51.9766 153.492 52.25 154.742 52.7969C155.992 53.3307 157.04 54.0794 157.887 55.043C158.746 56.0065 159.397 57.1458 159.84 58.4609C160.283 59.763 160.504 61.1888 160.504 62.7383V63.1484C160.504 64.6849 160.283 66.1107 159.84 67.4258C159.397 68.7279 158.746 69.8672 157.887 70.8438C157.04 71.8073 155.999 72.556 154.762 73.0898C153.525 73.6237 152.105 73.8906 150.504 73.8906C148.902 73.8906 147.477 73.6237 146.227 73.0898C144.99 72.556 143.941 71.8073 143.082 70.8438C142.236 69.8672 141.591 68.7279 141.148 67.4258C140.706 66.1107 140.484 64.6849 140.484 63.1484ZM146.109 62.7383V63.1484C146.109 64.0339 146.188 64.8607 146.344 65.6289C146.5 66.3971 146.747 67.0742 147.086 67.6602C147.438 68.2331 147.893 68.6823 148.453 69.0078C149.013 69.3333 149.697 69.4961 150.504 69.4961C151.285 69.4961 151.956 69.3333 152.516 69.0078C153.076 68.6823 153.525 68.2331 153.863 67.6602C154.202 67.0742 154.449 66.3971 154.605 65.6289C154.775 64.8607 154.859 64.0339 154.859 63.1484V62.7383C154.859 61.8789 154.775 61.0716 154.605 60.3164C154.449 59.5482 154.195 58.8711 153.844 58.2852C153.505 57.6862 153.056 57.2174 152.496 56.8789C151.936 56.5404 151.259 56.3711 150.465 56.3711C149.671 56.3711 148.993 56.5404 148.434 56.8789C147.887 57.2174 147.438 57.6862 147.086 58.2852C146.747 58.8711 146.5 59.5482 146.344 60.3164C146.188 61.0716 146.109 61.8789 146.109 62.7383ZM169.898 43.5V73.5H164.254V43.5H169.898ZM173.648 63.1484V62.7383C173.648 61.1888 173.87 59.763 174.312 58.4609C174.755 57.1458 175.4 56.0065 176.246 55.043C177.092 54.0794 178.134 53.3307 179.371 52.7969C180.608 52.25 182.027 51.9766 183.629 51.9766C185.23 51.9766 186.656 52.25 187.906 52.7969C189.156 53.3307 190.204 54.0794 191.051 55.043C191.91 56.0065 192.561 57.1458 193.004 58.4609C193.447 59.763 193.668 61.1888 193.668 62.7383V63.1484C193.668 64.6849 193.447 66.1107 193.004 67.4258C192.561 68.7279 191.91 69.8672 191.051 70.8438C190.204 71.8073 189.163 72.556 187.926 73.0898C186.689 73.6237 185.27 73.8906 183.668 73.8906C182.066 73.8906 180.641 73.6237 179.391 73.0898C178.154 72.556 177.105 71.8073 176.246 70.8438C175.4 69.8672 174.755 68.7279 174.312 67.4258C173.87 66.1107 173.648 64.6849 173.648 63.1484ZM179.273 62.7383V63.1484C179.273 64.0339 179.352 64.8607 179.508 65.6289C179.664 66.3971 179.911 67.0742 180.25 67.6602C180.602 68.2331 181.057 68.6823 181.617 69.0078C182.177 69.3333 182.861 69.4961 183.668 69.4961C184.449 69.4961 185.12 69.3333 185.68 69.0078C186.24 68.6823 186.689 68.2331 187.027 67.6602C187.366 67.0742 187.613 66.3971 187.77 65.6289C187.939 64.8607 188.023 64.0339 188.023 63.1484V62.7383C188.023 61.8789 187.939 61.0716 187.77 60.3164C187.613 59.5482 187.359 58.8711 187.008 58.2852C186.669 57.6862 186.22 57.2174 185.66 56.8789C185.1 56.5404 184.423 56.3711 183.629 56.3711C182.835 56.3711 182.158 56.5404 181.598 56.8789C181.051 57.2174 180.602 57.6862 180.25 58.2852C179.911 58.8711 179.664 59.5482 179.508 60.3164C179.352 61.0716 179.273 61.8789 179.273 62.7383ZM216.168 73.5H209.977L210.016 68.9297H216.168C217.704 68.9297 219 68.5846 220.055 67.8945C221.109 67.1914 221.904 66.1693 222.438 64.8281C222.984 63.487 223.258 61.8659 223.258 59.9648V58.5781C223.258 57.1198 223.102 55.8372 222.789 54.7305C222.49 53.6237 222.04 52.6927 221.441 51.9375C220.842 51.1823 220.107 50.6159 219.234 50.2383C218.362 49.8477 217.359 49.6523 216.227 49.6523H209.859V45.0625H216.227C218.128 45.0625 219.866 45.388 221.441 46.0391C223.03 46.6771 224.404 47.5951 225.562 48.793C226.721 49.9909 227.613 51.4232 228.238 53.0898C228.876 54.7435 229.195 56.5859 229.195 58.6172V59.9648C229.195 61.9831 228.876 63.8255 228.238 65.4922C227.613 67.1589 226.721 68.5911 225.562 69.7891C224.417 70.974 223.043 71.8919 221.441 72.543C219.853 73.181 218.095 73.5 216.168 73.5ZM213.297 45.0625V73.5H207.438V45.0625H213.297ZM242.828 73.8906C241.188 73.8906 239.716 73.6302 238.414 73.1094C237.112 72.5755 236.005 71.8398 235.094 70.9023C234.195 69.9648 233.505 68.8776 233.023 67.6406C232.542 66.3906 232.301 65.0625 232.301 63.6562V62.875C232.301 61.2734 232.529 59.8086 232.984 58.4805C233.44 57.1523 234.091 56 234.938 55.0234C235.797 54.0469 236.839 53.2982 238.062 52.7773C239.286 52.2435 240.667 51.9766 242.203 51.9766C243.701 51.9766 245.029 52.224 246.188 52.7188C247.346 53.2135 248.316 53.9167 249.098 54.8281C249.892 55.7396 250.491 56.8333 250.895 58.1094C251.298 59.3724 251.5 60.7786 251.5 62.3281V64.6719H234.703V60.9219H245.973V60.4922C245.973 59.7109 245.829 59.0143 245.543 58.4023C245.27 57.7773 244.853 57.2826 244.293 56.918C243.733 56.5534 243.017 56.3711 242.145 56.3711C241.402 56.3711 240.764 56.5339 240.23 56.8594C239.697 57.1849 239.26 57.6406 238.922 58.2266C238.596 58.8125 238.349 59.5026 238.18 60.2969C238.023 61.0781 237.945 61.9375 237.945 62.875V63.6562C237.945 64.5026 238.062 65.2839 238.297 66C238.544 66.7161 238.889 67.3346 239.332 67.8555C239.788 68.3763 240.335 68.7799 240.973 69.0664C241.624 69.3529 242.359 69.4961 243.18 69.4961C244.195 69.4961 245.139 69.3008 246.012 68.9102C246.897 68.5065 247.659 67.901 248.297 67.0938L251.031 70.0625C250.589 70.7005 249.983 71.3125 249.215 71.8984C248.46 72.4844 247.548 72.9661 246.48 73.3438C245.413 73.7083 244.195 73.8906 242.828 73.8906ZM261.617 69.3984L266.305 52.3672H272.184L265.055 73.5H261.5L261.617 69.3984ZM258.395 52.3672L263.102 69.418L263.199 73.5H259.625L252.496 52.3672H258.395Z" fill="white"/>
<defs>
<filter id="filter0_d_6_497" x="128" y="0" width="169" height="117" filterUnits="userSpaceOnUse" color-interpolation-filters="sRGB">
<feFlood flood-opacity="0" result="BackgroundImageFix"/>
<feColorMatrix in="SourceAlpha" type="matrix" values="0 0 0 0 0 0 0 0 0 0 0 0 0 0 0 0 0 0 127 0" result="hardAlpha"/>
<feOffset/>
<feGaussianBlur stdDeviation="5.5"/>
<feComposite in2="hardAlpha" operator="out"/>
<feColorMatrix type="matrix" values="0 0 0 0 0 0 0 0 0 0 0 0 0 0 0 0 0 0 0.25 0"/>
<feBlend mode="normal" in2="BackgroundImageFix" result="effect1_dropShadow_6_497"/>
<feBlend mode="normal" in="SourceGraphic" in2="effect1_dropShadow_6_497" result="shape"/>
</filter>
<linearGradient id="paint0_linear_6_497" x1="289.932" y1="85.1667" x2="156.309" y2="12.0194" gradientUnits="userSpaceOnUse">
<stop stop-color="#1511CD"/>
<stop offset="1" stop-color="#33DE44"/>
</linearGradient>
</defs>
</svg>
